<svg xmlns="http://www.w3.org/2000/svg" width="100" height="100" viewBox="0 0 100 100">
  <!-- 배경 -->
  <rect width="100" height="100" rx="20" fill="#2563eb" />
  
  <!-- 해시 심볼 -->
  <path d="M30 30 L45 30 L45 45 L70 45 L70 30 L85 30 L85 70 L70 70 L70 55 L45 55 L45 70 L30 70 Z" 
        fill="white" />
  
  <!-- S 문자 (암호화폐 심볼처럼) -->
  <path d="M20 40 Q20 35 25 35 L35 35 Q40 35 40 40 L40 50 Q40 55 35 55 L25 55 Q20 55 20 60 L20 65 Q20 70 25 70 L35 70 Q40 70 40 65" 
        stroke="white" fill="none" stroke-width="5" stroke-linecap="round" />
</svg>
